<?xml version="1.0" standalone="no"?><!DOCTYPE svg PUBLIC "-//W3C//DTD SVG 1.1//EN" "http://www.w3.org/Graphics/SVG/1.1/DTD/svg11.dtd"><svg t="1590293696018" class="icon" viewBox="0 0 1024 1024" version="1.1" xmlns="http://www.w3.org/2000/svg" p-id="2555" xmlns:xlink="http://www.w3.org/1999/xlink" width="200" height="200"><defs><style type="text/css"></style></defs><path d="M113.777778 0h796.444444a113.777778 113.777778 0 0 1 113.777778 113.777778v796.444444a113.777778 113.777778 0 0 1-113.777778 113.777778H113.777778a113.777778 113.777778 0 0 1-113.777778-113.777778V113.777778a113.777778 113.777778 0 0 1 113.777778-113.777778z m97.223111 392.760889c-43.804444 0-78.051556 13.937778-102.741333 42.609778-23.893333 27.079111-35.441778 62.122667-35.441778 105.528889 0 43.008 11.548444 78.051556 35.441778 105.130666 24.689778 27.875556 58.936889 42.211556 102.741333 42.211556 43.406222 0 77.653333-13.937778 102.741333-41.813334 23.893333-26.680889 35.84-61.724444 35.84-105.528888s-11.946667-79.246222-35.84-105.927112c-25.088-28.273778-59.335111-42.211556-102.741333-42.211555z m0 41.016889c29.468444 0 52.167111 9.159111 68.096 28.273778 15.530667 19.114667 23.495111 45.397333 23.495111 78.848 0 33.450667-7.964444 59.335111-23.495111 78.051555-15.928889 18.716444-38.627556 28.273778-68.096 28.273778s-52.565333-9.955556-68.494222-29.468445c-15.530667-19.114667-23.096889-44.600889-23.096889-76.856888 0-32.654222 7.566222-58.140444 23.096889-77.255112 16.327111-19.911111 39.025778-29.866667 68.494222-29.866666z m305.834667-41.016889c-45.397333 0-80.042667 14.734222-103.936 44.999111-21.105778 26.282667-31.459556 60.928-31.459556 103.139556 0 43.008 9.955556 77.255111 30.264889 102.741333 23.096889 29.468444 58.538667 44.600889 105.927111 44.600889 30.663111 0 56.945778-8.760889 78.848-26.282667 23.495111-18.716444 38.229333-44.600889 44.600889-78.051555h-45.397333c-5.575111 21.504-15.132444 37.831111-28.672 48.583111-12.743111 9.557333-29.468444 14.734222-49.777778 14.734222-31.061333 0-54.158222-9.955556-68.892445-29.070222-13.539556-17.92-20.309333-43.804444-20.309333-77.255111 0-32.654222 6.769778-58.140444 20.707556-76.458667 15.132444-20.707556 37.432889-30.663111 67.299555-30.663111 19.911111 0 36.238222 3.982222 48.981333 12.743111 13.141333 8.760889 21.902222 22.300444 26.680889 41.016889h45.397334c-4.380444-28.672-16.725333-51.768889-37.432889-68.494222-21.504-17.521778-49.379556-26.282667-82.830222-26.282667zM682.666667 398.336V682.666667h56.888889v-113.777778l65.592888-2.104889c15.928889 0 28.273778 3.185778 36.636445 10.353778 7.964444 6.769778 12.743111 17.92 14.336 33.450666l3.584 35.043556c1.592889 15.928889 5.575111 28.273778 12.344889 37.034667h50.574222c-9.557333-10.353778-15.530667-24.291556-17.123556-41.813334l-4.778666-45.795555c-3.185778-27.875556-17.123556-44.202667-41.813334-49.777778v-0.796444c15.132444-3.982222 27.477333-12.344889 36.238223-25.088 7.964444-11.548444 11.946667-24.689778 11.946666-39.424 0-27.079111-9.159111-47.786667-26.680889-62.122667-16.725333-13.141333-39.822222-19.512889-68.892444-19.512889H682.666667zM739.555556 455.111111h85.333333c27.079111 0 27.079111 56.888889 0 56.888889H739.555556V455.111111z" fill="#7dc5eb" p-id="2556" data-spm-anchor-id="a313x.7781069.0.i1" class="selected"></path></svg>