<?xml version="1.0" standalone="no"?><!DOCTYPE svg PUBLIC "-//W3C//DTD SVG 1.1//EN" "http://www.w3.org/Graphics/SVG/1.1/DTD/svg11.dtd"><svg t="1590310387749" class="icon" viewBox="0 0 1024 1024" version="1.1" xmlns="http://www.w3.org/2000/svg" p-id="4725" xmlns:xlink="http://www.w3.org/1999/xlink" width="200" height="200"><defs><style type="text/css"></style></defs><path d="M238.906119 0h93.488432c14.640432 0 24.991135 7.693838 31.411892 20.424649a36.255135 36.255135 0 0 1-0.968648 36.393513c-7.195676 12.537081-18.155243 18.819459-32.601946 18.81946-47.602162-0.221405-95.42573-0.221405-143.027892 0-20.313946 0-39.631568 4.234378-57.177946 14.944864-36.310486 22.472649-55.434378 55.821838-56.015568 99.494055-0.581189 39.437838-0.19373 78.875676-0.193729 118.313513 0 8.302703-0.968649 16.19027-5.479784 23.662703-8.38573 14.363676-25.184865 21.420973-41.15373 16.992865a37.417514 37.417514 0 0 1-26.734703-36.006054c0-51.753514-0.608865-103.728432 0.19373-155.509622 0.553514-52.583784 22.251243-94.650811 62.436324-126.394811A146.957838 146.957838 0 0 1 139.578119 0.415135C141.736822 0 144.282984 0 146.80147 0h92.104649z m541.336216 0h-93.460757c-14.640432 0-24.963459 7.693838-31.411892 20.424649a36.255135 36.255135 0 0 0 0.968649 36.393513c7.223351 12.537081 18.155243 18.819459 32.601946 18.81946 47.602162-0.221405 95.42573-0.221405 143.055568 0 20.28627 0 39.603892 4.234378 57.177946 14.944864 36.282811 22.472649 55.406703 55.821838 55.987891 99.494055 0.581189 39.437838 0.19373 78.875676 0.19373 118.313513 0 8.302703 0.996324 16.19027 5.479784 23.662703 8.38573 14.363676 25.184865 21.420973 41.181405 16.992865 15.609081-4.455784 26.734703-19.234595 26.734703-36.006054 0-51.753514 0.553514-103.728432-0.19373-155.509622-0.581189-52.583784-22.251243-94.650811-62.464-126.394811a146.957838 146.957838 0 0 0-76.495567-30.72A96.477405 96.477405 0 0 0 872.18093 0h-91.910919zM238.933795 1021.232432h93.488432c14.640432 0 24.991135-7.693838 31.411892-20.424648a36.255135 36.255135 0 0 0-0.968649-36.421189c-7.195676-12.537081-18.155243-18.819459-32.601946-18.81946-47.602162 0.221405-95.42573 0.221405-143.027892 0-20.313946 0-39.631568-4.234378-57.177946-14.944865-36.310486-22.417297-55.434378-55.794162-56.015567-99.494054-0.581189-39.437838-0.19373-78.875676-0.19373-118.285838 0-8.302703-0.968649-16.19027-5.479784-23.662702a36.393514 36.393514 0 0 0-41.153729-16.992865c-15.609081 4.428108-26.734703 19.206919-26.734703 35.978378 0 51.781189-0.608865 103.756108 0.19373 155.537297 0.553514 52.583784 22.251243 94.650811 62.436324 126.367136a146.957838 146.957838 0 0 0 76.495568 30.747675c2.546162 0.19373 5.092324 0.415135 7.417081 0.415135h91.910919z m541.336216 0h-93.460757c-14.640432 0-24.963459-7.693838-31.411892-20.424648a36.255135 36.255135 0 0 1 0.968649-36.421189c7.223351-12.537081 18.155243-18.819459 32.601946-18.81946 47.602162 0.221405 95.42573 0.221405 143.055567 0 20.28627 0 39.603892-4.234378 57.177946-14.944865 36.282811-22.417297 55.406703-55.794162 55.987892-99.494054 0.581189-39.437838 0.19373-78.875676 0.19373-118.285838 0-8.302703 0.996324-16.19027 5.479784-23.662702 8.38573-14.363676 25.184865-21.448649 41.181405-16.992865 15.609081 4.428108 26.734703 19.206919 26.734703 35.978378 0 51.781189 0.553514 103.756108-0.19373 155.537297-0.581189 52.583784-22.251243 94.650811-62.464 126.367136a146.957838 146.957838 0 0 1-76.495568 30.747675 95.757838 95.757838 0 0 1-7.417081 0.415135h-91.910919zM208.296822 711.624649c5.867243 15.16627 17.767784 24.077838 31.827027 24.077837h535.690378c9.548108 0 17.961514-4.068324 24.76973-12.149621 6.835892-8.081297 13.837838-17.989189 13.837838-29.529946V340.134054c0-30.72-12.260324-46.107676-26.319568-52.168649-14.059243-6.282378-28.893405-1.632865-38.635243 11.734487l-186.75546 257.024c-6.835892 9.492757-15.830486 14.363676-26.347243 14.363676-10.544432 0-19.511351-4.870919-26.347243-14.391352l-83.13773-114.438919c-7.029622-9.492757-15.996541-14.363676-26.568649-14.363675-10.516757 0-19.483676 5.064649-26.513297 14.557405l-160.242162 224.671135c-9.354378 12.730811-11.097946 29.336216-5.258378 44.502487z" p-id="4726" data-spm-anchor-id="a313x.7781069.0.i1" class="" fill="#bfbfbf"></path></svg>